<mxfile host="65bd71144e">
    <diagram id="qFzwmWtZi2TqSin0rDPX" name="Page-1">
        <mxGraphModel dx="1638" dy="3586" grid="1" gridSize="10" guides="1" tooltips="1" connect="1" arrows="1" fold="1" page="1" pageScale="1" pageWidth="1600" pageHeight="900" math="0" shadow="0">
            <root>
                <mxCell id="0"/>
                <mxCell id="1" parent="0"/>
                <mxCell id="37" value="" style="group" vertex="1" connectable="0" parent="1">
                    <mxGeometry x="685" y="-1760" width="230" height="130" as="geometry"/>
                </mxCell>
                <mxCell id="2" value="" style="rounded=0;whiteSpace=wrap;html=1;" parent="37" vertex="1">
                    <mxGeometry width="230" height="130" as="geometry"/>
                </mxCell>
                <mxCell id="3" value="&lt;font color=&quot;#f68e3d&quot;&gt;ExpressionHeadTail&lt;/font&gt;" style="text;html=1;strokeColor=none;fillColor=none;align=center;verticalAlign=middle;whiteSpace=wrap;rounded=0;" vertex="1" parent="37">
                    <mxGeometry x="95" y="10" width="40" height="20" as="geometry"/>
                </mxCell>
                <mxCell id="6" value="" style="shape=table;html=1;whiteSpace=wrap;startSize=0;container=1;collapsible=0;childLayout=tableLayout;" vertex="1" parent="37">
                    <mxGeometry x="25" y="40" width="180" height="70" as="geometry"/>
                </mxCell>
                <mxCell id="7" value="" style="shape=partialRectangle;html=1;whiteSpace=wrap;collapsible=0;dropTarget=0;pointerEvents=0;fillColor=none;top=0;left=0;bottom=0;right=0;points=[[0,0.5],[1,0.5]];portConstraint=eastwest;" vertex="1" parent="6">
                    <mxGeometry width="180" height="35" as="geometry"/>
                </mxCell>
                <mxCell id="8" value="&lt;font color=&quot;#f68e3d&quot;&gt;Expression &lt;/font&gt;&lt;font color=&quot;#f4705d&quot;&gt;*&lt;/font&gt;head" style="shape=partialRectangle;html=1;whiteSpace=wrap;connectable=0;fillColor=none;top=0;left=0;bottom=0;right=0;overflow=hidden;pointerEvents=1;" vertex="1" parent="7">
                    <mxGeometry width="180" height="35" as="geometry"/>
                </mxCell>
                <mxCell id="11" value="" style="shape=partialRectangle;html=1;whiteSpace=wrap;collapsible=0;dropTarget=0;pointerEvents=0;fillColor=none;top=0;left=0;bottom=0;right=0;points=[[0,0.5],[1,0.5]];portConstraint=eastwest;" vertex="1" parent="6">
                    <mxGeometry y="35" width="180" height="35" as="geometry"/>
                </mxCell>
                <mxCell id="12" value="&lt;font color=&quot;#f68e3d&quot;&gt;Expression &lt;/font&gt;&lt;font color=&quot;#f4705d&quot;&gt;*&lt;/font&gt;tail" style="shape=partialRectangle;html=1;whiteSpace=wrap;connectable=0;fillColor=none;top=0;left=0;bottom=0;right=0;overflow=hidden;pointerEvents=1;" vertex="1" parent="11">
                    <mxGeometry width="180" height="35" as="geometry"/>
                </mxCell>
                <mxCell id="38" value="" style="group" vertex="1" connectable="0" parent="1">
                    <mxGeometry x="500" y="-1610" width="230" height="240" as="geometry"/>
                </mxCell>
                <mxCell id="23" value="" style="rounded=0;whiteSpace=wrap;html=1;" vertex="1" parent="38">
                    <mxGeometry width="230" height="240" as="geometry"/>
                </mxCell>
                <mxCell id="24" value="&lt;font color=&quot;#f68e3d&quot;&gt;Expression&lt;/font&gt;" style="text;html=1;strokeColor=none;fillColor=none;align=center;verticalAlign=middle;whiteSpace=wrap;rounded=0;" vertex="1" parent="38">
                    <mxGeometry x="95" y="10" width="40" height="20" as="geometry"/>
                </mxCell>
                <mxCell id="25" value="" style="shape=table;html=1;whiteSpace=wrap;startSize=0;container=1;collapsible=0;childLayout=tableLayout;" vertex="1" parent="38">
                    <mxGeometry x="25" y="40" width="180" height="175" as="geometry"/>
                </mxCell>
                <mxCell id="26" value="" style="shape=partialRectangle;html=1;whiteSpace=wrap;collapsible=0;dropTarget=0;pointerEvents=0;fillColor=none;top=0;left=0;bottom=0;right=0;points=[[0,0.5],[1,0.5]];portConstraint=eastwest;" vertex="1" parent="25">
                    <mxGeometry width="180" height="35" as="geometry"/>
                </mxCell>
                <mxCell id="27" value="&lt;font color=&quot;#f68e3d&quot;&gt;char&amp;nbsp;&lt;/font&gt;opr" style="shape=partialRectangle;html=1;whiteSpace=wrap;connectable=0;fillColor=none;top=0;left=0;bottom=0;right=0;overflow=hidden;pointerEvents=1;" vertex="1" parent="26">
                    <mxGeometry width="180" height="35" as="geometry"/>
                </mxCell>
                <mxCell id="28" value="" style="shape=partialRectangle;html=1;whiteSpace=wrap;collapsible=0;dropTarget=0;pointerEvents=0;fillColor=none;top=0;left=0;bottom=0;right=0;points=[[0,0.5],[1,0.5]];portConstraint=eastwest;" vertex="1" parent="25">
                    <mxGeometry y="35" width="180" height="35" as="geometry"/>
                </mxCell>
                <mxCell id="29" value="&lt;font color=&quot;#f68e3d&quot;&gt;Number&amp;nbsp;&lt;/font&gt;&lt;font color=&quot;#f4705d&quot;&gt;*&lt;/font&gt;data" style="shape=partialRectangle;html=1;whiteSpace=wrap;connectable=0;fillColor=none;top=0;left=0;bottom=0;right=0;overflow=hidden;pointerEvents=1;" vertex="1" parent="28">
                    <mxGeometry width="180" height="35" as="geometry"/>
                </mxCell>
                <mxCell id="30" style="shape=partialRectangle;html=1;whiteSpace=wrap;collapsible=0;dropTarget=0;pointerEvents=0;fillColor=none;top=0;left=0;bottom=0;right=0;points=[[0,0.5],[1,0.5]];portConstraint=eastwest;" vertex="1" parent="25">
                    <mxGeometry y="70" width="180" height="35" as="geometry"/>
                </mxCell>
                <mxCell id="31" value="&lt;font color=&quot;#f68e3d&quot;&gt;EXPRESSION_TYPE&amp;nbsp;&lt;/font&gt;&lt;span&gt;type&lt;/span&gt;" style="shape=partialRectangle;html=1;whiteSpace=wrap;connectable=0;fillColor=none;top=0;left=0;bottom=0;right=0;overflow=hidden;pointerEvents=1;" vertex="1" parent="30">
                    <mxGeometry width="180" height="35" as="geometry"/>
                </mxCell>
                <mxCell id="32" style="shape=partialRectangle;html=1;whiteSpace=wrap;collapsible=0;dropTarget=0;pointerEvents=0;fillColor=none;top=0;left=0;bottom=0;right=0;points=[[0,0.5],[1,0.5]];portConstraint=eastwest;" vertex="1" parent="25">
                    <mxGeometry y="105" width="180" height="35" as="geometry"/>
                </mxCell>
                <mxCell id="33" value="&lt;span style=&quot;color: rgb(246 , 142 , 61)&quot;&gt;Expression&amp;nbsp;&lt;/span&gt;&lt;font color=&quot;#f4705d&quot;&gt;*&lt;/font&gt;next" style="shape=partialRectangle;html=1;whiteSpace=wrap;connectable=0;fillColor=none;top=0;left=0;bottom=0;right=0;overflow=hidden;pointerEvents=1;" vertex="1" parent="32">
                    <mxGeometry width="180" height="35" as="geometry"/>
                </mxCell>
                <mxCell id="34" style="shape=partialRectangle;html=1;whiteSpace=wrap;collapsible=0;dropTarget=0;pointerEvents=0;fillColor=none;top=0;left=0;bottom=0;right=0;points=[[0,0.5],[1,0.5]];portConstraint=eastwest;" vertex="1" parent="25">
                    <mxGeometry y="140" width="180" height="35" as="geometry"/>
                </mxCell>
                <mxCell id="35" value="&lt;font color=&quot;#f68e3d&quot;&gt;Expression&amp;nbsp;&lt;/font&gt;&lt;font color=&quot;#f4705d&quot;&gt;*&lt;/font&gt;&lt;span&gt;prev&lt;/span&gt;" style="shape=partialRectangle;html=1;whiteSpace=wrap;connectable=0;fillColor=none;top=0;left=0;bottom=0;right=0;overflow=hidden;pointerEvents=1;" vertex="1" parent="34">
                    <mxGeometry width="180" height="35" as="geometry"/>
                </mxCell>
                <mxCell id="39" value="" style="group" vertex="1" connectable="0" parent="1">
                    <mxGeometry x="180" y="-1610" width="230" height="240" as="geometry"/>
                </mxCell>
                <mxCell id="40" value="" style="rounded=0;whiteSpace=wrap;html=1;" vertex="1" parent="39">
                    <mxGeometry width="230" height="240" as="geometry"/>
                </mxCell>
                <mxCell id="41" value="&lt;font color=&quot;#f68e3d&quot;&gt;Expression&lt;/font&gt;" style="text;html=1;strokeColor=none;fillColor=none;align=center;verticalAlign=middle;whiteSpace=wrap;rounded=0;" vertex="1" parent="39">
                    <mxGeometry x="95" y="10" width="40" height="20" as="geometry"/>
                </mxCell>
                <mxCell id="42" value="" style="shape=table;html=1;whiteSpace=wrap;startSize=0;container=1;collapsible=0;childLayout=tableLayout;" vertex="1" parent="39">
                    <mxGeometry x="25" y="40" width="180" height="175" as="geometry"/>
                </mxCell>
                <mxCell id="43" value="" style="shape=partialRectangle;html=1;whiteSpace=wrap;collapsible=0;dropTarget=0;pointerEvents=0;fillColor=none;top=0;left=0;bottom=0;right=0;points=[[0,0.5],[1,0.5]];portConstraint=eastwest;" vertex="1" parent="42">
                    <mxGeometry width="180" height="35" as="geometry"/>
                </mxCell>
                <mxCell id="44" value="&lt;font color=&quot;#f68e3d&quot;&gt;char&amp;nbsp;&lt;/font&gt;opr" style="shape=partialRectangle;html=1;whiteSpace=wrap;connectable=0;fillColor=none;top=0;left=0;bottom=0;right=0;overflow=hidden;pointerEvents=1;" vertex="1" parent="43">
                    <mxGeometry width="180" height="35" as="geometry"/>
                </mxCell>
                <mxCell id="45" value="" style="shape=partialRectangle;html=1;whiteSpace=wrap;collapsible=0;dropTarget=0;pointerEvents=0;fillColor=none;top=0;left=0;bottom=0;right=0;points=[[0,0.5],[1,0.5]];portConstraint=eastwest;" vertex="1" parent="42">
                    <mxGeometry y="35" width="180" height="35" as="geometry"/>
                </mxCell>
                <mxCell id="46" value="&lt;font color=&quot;#f68e3d&quot;&gt;Number&amp;nbsp;&lt;/font&gt;&lt;font color=&quot;#f4705d&quot;&gt;*&lt;/font&gt;data" style="shape=partialRectangle;html=1;whiteSpace=wrap;connectable=0;fillColor=none;top=0;left=0;bottom=0;right=0;overflow=hidden;pointerEvents=1;" vertex="1" parent="45">
                    <mxGeometry width="180" height="35" as="geometry"/>
                </mxCell>
                <mxCell id="47" style="shape=partialRectangle;html=1;whiteSpace=wrap;collapsible=0;dropTarget=0;pointerEvents=0;fillColor=none;top=0;left=0;bottom=0;right=0;points=[[0,0.5],[1,0.5]];portConstraint=eastwest;" vertex="1" parent="42">
                    <mxGeometry y="70" width="180" height="35" as="geometry"/>
                </mxCell>
                <mxCell id="48" value="&lt;font color=&quot;#f68e3d&quot;&gt;EXPRESSION_TYPE&amp;nbsp;&lt;/font&gt;&lt;span&gt;type&lt;/span&gt;" style="shape=partialRectangle;html=1;whiteSpace=wrap;connectable=0;fillColor=none;top=0;left=0;bottom=0;right=0;overflow=hidden;pointerEvents=1;" vertex="1" parent="47">
                    <mxGeometry width="180" height="35" as="geometry"/>
                </mxCell>
                <mxCell id="49" style="shape=partialRectangle;html=1;whiteSpace=wrap;collapsible=0;dropTarget=0;pointerEvents=0;fillColor=none;top=0;left=0;bottom=0;right=0;points=[[0,0.5],[1,0.5]];portConstraint=eastwest;" vertex="1" parent="42">
                    <mxGeometry y="105" width="180" height="35" as="geometry"/>
                </mxCell>
                <mxCell id="50" value="&lt;span style=&quot;color: rgb(246 , 142 , 61)&quot;&gt;Expression&amp;nbsp;&lt;/span&gt;&lt;font color=&quot;#f4705d&quot;&gt;*&lt;/font&gt;next" style="shape=partialRectangle;html=1;whiteSpace=wrap;connectable=0;fillColor=none;top=0;left=0;bottom=0;right=0;overflow=hidden;pointerEvents=1;" vertex="1" parent="49">
                    <mxGeometry width="180" height="35" as="geometry"/>
                </mxCell>
                <mxCell id="51" style="shape=partialRectangle;html=1;whiteSpace=wrap;collapsible=0;dropTarget=0;pointerEvents=0;fillColor=none;top=0;left=0;bottom=0;right=0;points=[[0,0.5],[1,0.5]];portConstraint=eastwest;" vertex="1" parent="42">
                    <mxGeometry y="140" width="180" height="35" as="geometry"/>
                </mxCell>
                <mxCell id="52" value="&lt;font color=&quot;#f68e3d&quot;&gt;Expression&amp;nbsp;&lt;/font&gt;&lt;font color=&quot;#f4705d&quot;&gt;*&lt;/font&gt;&lt;span&gt;prev&lt;/span&gt;" style="shape=partialRectangle;html=1;whiteSpace=wrap;connectable=0;fillColor=none;top=0;left=0;bottom=0;right=0;overflow=hidden;pointerEvents=1;" vertex="1" parent="51">
                    <mxGeometry width="180" height="35" as="geometry"/>
                </mxCell>
                <mxCell id="81" value="" style="group" vertex="1" connectable="0" parent="1">
                    <mxGeometry x="1190" y="-1610" width="230" height="240" as="geometry"/>
                </mxCell>
                <mxCell id="82" value="" style="rounded=0;whiteSpace=wrap;html=1;" vertex="1" parent="81">
                    <mxGeometry width="230" height="240" as="geometry"/>
                </mxCell>
                <mxCell id="83" value="&lt;font color=&quot;#f68e3d&quot;&gt;Expression&lt;/font&gt;" style="text;html=1;strokeColor=none;fillColor=none;align=center;verticalAlign=middle;whiteSpace=wrap;rounded=0;" vertex="1" parent="81">
                    <mxGeometry x="95" y="10" width="40" height="20" as="geometry"/>
                </mxCell>
                <mxCell id="84" value="" style="shape=table;html=1;whiteSpace=wrap;startSize=0;container=1;collapsible=0;childLayout=tableLayout;" vertex="1" parent="81">
                    <mxGeometry x="25" y="40" width="180" height="175" as="geometry"/>
                </mxCell>
                <mxCell id="85" value="" style="shape=partialRectangle;html=1;whiteSpace=wrap;collapsible=0;dropTarget=0;pointerEvents=0;fillColor=none;top=0;left=0;bottom=0;right=0;points=[[0,0.5],[1,0.5]];portConstraint=eastwest;" vertex="1" parent="84">
                    <mxGeometry width="180" height="35" as="geometry"/>
                </mxCell>
                <mxCell id="86" value="&lt;font color=&quot;#f68e3d&quot;&gt;char&amp;nbsp;&lt;/font&gt;opr" style="shape=partialRectangle;html=1;whiteSpace=wrap;connectable=0;fillColor=none;top=0;left=0;bottom=0;right=0;overflow=hidden;pointerEvents=1;" vertex="1" parent="85">
                    <mxGeometry width="180" height="35" as="geometry"/>
                </mxCell>
                <mxCell id="87" value="" style="shape=partialRectangle;html=1;whiteSpace=wrap;collapsible=0;dropTarget=0;pointerEvents=0;fillColor=none;top=0;left=0;bottom=0;right=0;points=[[0,0.5],[1,0.5]];portConstraint=eastwest;" vertex="1" parent="84">
                    <mxGeometry y="35" width="180" height="35" as="geometry"/>
                </mxCell>
                <mxCell id="88" value="&lt;font color=&quot;#f68e3d&quot;&gt;Number&amp;nbsp;&lt;/font&gt;&lt;font color=&quot;#f4705d&quot;&gt;*&lt;/font&gt;data" style="shape=partialRectangle;html=1;whiteSpace=wrap;connectable=0;fillColor=none;top=0;left=0;bottom=0;right=0;overflow=hidden;pointerEvents=1;" vertex="1" parent="87">
                    <mxGeometry width="180" height="35" as="geometry"/>
                </mxCell>
                <mxCell id="89" style="shape=partialRectangle;html=1;whiteSpace=wrap;collapsible=0;dropTarget=0;pointerEvents=0;fillColor=none;top=0;left=0;bottom=0;right=0;points=[[0,0.5],[1,0.5]];portConstraint=eastwest;" vertex="1" parent="84">
                    <mxGeometry y="70" width="180" height="35" as="geometry"/>
                </mxCell>
                <mxCell id="90" value="&lt;font color=&quot;#f68e3d&quot;&gt;EXPRESSION_TYPE&amp;nbsp;&lt;/font&gt;&lt;span&gt;type&lt;/span&gt;" style="shape=partialRectangle;html=1;whiteSpace=wrap;connectable=0;fillColor=none;top=0;left=0;bottom=0;right=0;overflow=hidden;pointerEvents=1;" vertex="1" parent="89">
                    <mxGeometry width="180" height="35" as="geometry"/>
                </mxCell>
                <mxCell id="91" style="shape=partialRectangle;html=1;whiteSpace=wrap;collapsible=0;dropTarget=0;pointerEvents=0;fillColor=none;top=0;left=0;bottom=0;right=0;points=[[0,0.5],[1,0.5]];portConstraint=eastwest;" vertex="1" parent="84">
                    <mxGeometry y="105" width="180" height="35" as="geometry"/>
                </mxCell>
                <mxCell id="92" value="&lt;span style=&quot;color: rgb(246 , 142 , 61)&quot;&gt;Expression&amp;nbsp;&lt;/span&gt;&lt;font color=&quot;#f4705d&quot;&gt;*&lt;/font&gt;next" style="shape=partialRectangle;html=1;whiteSpace=wrap;connectable=0;fillColor=none;top=0;left=0;bottom=0;right=0;overflow=hidden;pointerEvents=1;" vertex="1" parent="91">
                    <mxGeometry width="180" height="35" as="geometry"/>
                </mxCell>
                <mxCell id="93" style="shape=partialRectangle;html=1;whiteSpace=wrap;collapsible=0;dropTarget=0;pointerEvents=0;fillColor=none;top=0;left=0;bottom=0;right=0;points=[[0,0.5],[1,0.5]];portConstraint=eastwest;" vertex="1" parent="84">
                    <mxGeometry y="140" width="180" height="35" as="geometry"/>
                </mxCell>
                <mxCell id="94" value="&lt;font color=&quot;#f68e3d&quot;&gt;Expression&amp;nbsp;&lt;/font&gt;&lt;font color=&quot;#f4705d&quot;&gt;*&lt;/font&gt;&lt;span&gt;prev&lt;/span&gt;" style="shape=partialRectangle;html=1;whiteSpace=wrap;connectable=0;fillColor=none;top=0;left=0;bottom=0;right=0;overflow=hidden;pointerEvents=1;" vertex="1" parent="93">
                    <mxGeometry width="180" height="35" as="geometry"/>
                </mxCell>
                <mxCell id="95" value="" style="group" vertex="1" connectable="0" parent="1">
                    <mxGeometry x="870" y="-1610" width="230" height="240" as="geometry"/>
                </mxCell>
                <mxCell id="96" value="" style="rounded=0;whiteSpace=wrap;html=1;" vertex="1" parent="95">
                    <mxGeometry width="230" height="240" as="geometry"/>
                </mxCell>
                <mxCell id="97" value="&lt;font color=&quot;#f68e3d&quot;&gt;Expression&lt;/font&gt;" style="text;html=1;strokeColor=none;fillColor=none;align=center;verticalAlign=middle;whiteSpace=wrap;rounded=0;" vertex="1" parent="95">
                    <mxGeometry x="95" y="10" width="40" height="20" as="geometry"/>
                </mxCell>
                <mxCell id="98" value="" style="shape=table;html=1;whiteSpace=wrap;startSize=0;container=1;collapsible=0;childLayout=tableLayout;" vertex="1" parent="95">
                    <mxGeometry x="25" y="40" width="180" height="175" as="geometry"/>
                </mxCell>
                <mxCell id="99" value="" style="shape=partialRectangle;html=1;whiteSpace=wrap;collapsible=0;dropTarget=0;pointerEvents=0;fillColor=none;top=0;left=0;bottom=0;right=0;points=[[0,0.5],[1,0.5]];portConstraint=eastwest;" vertex="1" parent="98">
                    <mxGeometry width="180" height="35" as="geometry"/>
                </mxCell>
                <mxCell id="100" value="&lt;font color=&quot;#f68e3d&quot;&gt;char&amp;nbsp;&lt;/font&gt;opr" style="shape=partialRectangle;html=1;whiteSpace=wrap;connectable=0;fillColor=none;top=0;left=0;bottom=0;right=0;overflow=hidden;pointerEvents=1;" vertex="1" parent="99">
                    <mxGeometry width="180" height="35" as="geometry"/>
                </mxCell>
                <mxCell id="101" value="" style="shape=partialRectangle;html=1;whiteSpace=wrap;collapsible=0;dropTarget=0;pointerEvents=0;fillColor=none;top=0;left=0;bottom=0;right=0;points=[[0,0.5],[1,0.5]];portConstraint=eastwest;" vertex="1" parent="98">
                    <mxGeometry y="35" width="180" height="35" as="geometry"/>
                </mxCell>
                <mxCell id="102" value="&lt;font color=&quot;#f68e3d&quot;&gt;Number&amp;nbsp;&lt;/font&gt;&lt;font color=&quot;#f4705d&quot;&gt;*&lt;/font&gt;data" style="shape=partialRectangle;html=1;whiteSpace=wrap;connectable=0;fillColor=none;top=0;left=0;bottom=0;right=0;overflow=hidden;pointerEvents=1;" vertex="1" parent="101">
                    <mxGeometry width="180" height="35" as="geometry"/>
                </mxCell>
                <mxCell id="103" style="shape=partialRectangle;html=1;whiteSpace=wrap;collapsible=0;dropTarget=0;pointerEvents=0;fillColor=none;top=0;left=0;bottom=0;right=0;points=[[0,0.5],[1,0.5]];portConstraint=eastwest;" vertex="1" parent="98">
                    <mxGeometry y="70" width="180" height="35" as="geometry"/>
                </mxCell>
                <mxCell id="104" value="&lt;font color=&quot;#f68e3d&quot;&gt;EXPRESSION_TYPE&amp;nbsp;&lt;/font&gt;&lt;span&gt;type&lt;/span&gt;" style="shape=partialRectangle;html=1;whiteSpace=wrap;connectable=0;fillColor=none;top=0;left=0;bottom=0;right=0;overflow=hidden;pointerEvents=1;" vertex="1" parent="103">
                    <mxGeometry width="180" height="35" as="geometry"/>
                </mxCell>
                <mxCell id="105" style="shape=partialRectangle;html=1;whiteSpace=wrap;collapsible=0;dropTarget=0;pointerEvents=0;fillColor=none;top=0;left=0;bottom=0;right=0;points=[[0,0.5],[1,0.5]];portConstraint=eastwest;" vertex="1" parent="98">
                    <mxGeometry y="105" width="180" height="35" as="geometry"/>
                </mxCell>
                <mxCell id="106" value="&lt;span style=&quot;color: rgb(246 , 142 , 61)&quot;&gt;Expression&amp;nbsp;&lt;/span&gt;&lt;font color=&quot;#f4705d&quot;&gt;*&lt;/font&gt;next" style="shape=partialRectangle;html=1;whiteSpace=wrap;connectable=0;fillColor=none;top=0;left=0;bottom=0;right=0;overflow=hidden;pointerEvents=1;" vertex="1" parent="105">
                    <mxGeometry width="180" height="35" as="geometry"/>
                </mxCell>
                <mxCell id="107" style="shape=partialRectangle;html=1;whiteSpace=wrap;collapsible=0;dropTarget=0;pointerEvents=0;fillColor=none;top=0;left=0;bottom=0;right=0;points=[[0,0.5],[1,0.5]];portConstraint=eastwest;" vertex="1" parent="98">
                    <mxGeometry y="140" width="180" height="35" as="geometry"/>
                </mxCell>
                <mxCell id="108" value="&lt;font color=&quot;#f68e3d&quot;&gt;Expression&amp;nbsp;&lt;/font&gt;&lt;font color=&quot;#f4705d&quot;&gt;*&lt;/font&gt;&lt;span&gt;prev&lt;/span&gt;" style="shape=partialRectangle;html=1;whiteSpace=wrap;connectable=0;fillColor=none;top=0;left=0;bottom=0;right=0;overflow=hidden;pointerEvents=1;" vertex="1" parent="107">
                    <mxGeometry width="180" height="35" as="geometry"/>
                </mxCell>
                <mxCell id="110" value="" style="endArrow=classic;html=1;exitX=1;exitY=0.5;exitDx=0;exitDy=0;entryX=0.002;entryY=0.677;entryDx=0;entryDy=0;entryPerimeter=0;" edge="1" parent="1" source="49" target="23">
                    <mxGeometry width="50" height="50" relative="1" as="geometry">
                        <mxPoint x="520" y="-1590" as="sourcePoint"/>
                        <mxPoint x="470" y="-1447" as="targetPoint"/>
                    </mxGeometry>
                </mxCell>
                <mxCell id="111" value="" style="endArrow=classic;html=1;entryX=0.002;entryY=0.677;entryDx=0;entryDy=0;entryPerimeter=0;" edge="1" parent="1">
                    <mxGeometry width="50" height="50" relative="1" as="geometry">
                        <mxPoint x="830" y="-1446" as="sourcePoint"/>
                        <mxPoint x="870" y="-1446" as="targetPoint"/>
                    </mxGeometry>
                </mxCell>
                <mxCell id="112" value="" style="endArrow=none;html=1;exitX=0.994;exitY=0.546;exitDx=0;exitDy=0;exitPerimeter=0;" edge="1" parent="1" source="32">
                    <mxGeometry width="50" height="50" relative="1" as="geometry">
                        <mxPoint x="740" y="-1410" as="sourcePoint"/>
                        <mxPoint x="750" y="-1446" as="targetPoint"/>
                    </mxGeometry>
                </mxCell>
                <mxCell id="113" value="" style="endArrow=none;dashed=1;html=1;dashPattern=1 3;strokeWidth=2;" edge="1" parent="1">
                    <mxGeometry width="50" height="50" relative="1" as="geometry">
                        <mxPoint x="750" y="-1446" as="sourcePoint"/>
                        <mxPoint x="830" y="-1446" as="targetPoint"/>
                    </mxGeometry>
                </mxCell>
                <mxCell id="114" value="" style="endArrow=classic;html=1;entryX=0.001;entryY=0.677;entryDx=0;entryDy=0;entryPerimeter=0;" edge="1" parent="1" source="105" target="82">
                    <mxGeometry width="50" height="50" relative="1" as="geometry">
                        <mxPoint x="840" y="-1436" as="sourcePoint"/>
                        <mxPoint x="880" y="-1436" as="targetPoint"/>
                    </mxGeometry>
                </mxCell>
                <mxCell id="115" value="" style="endArrow=classic;html=1;entryX=1;entryY=0.822;entryDx=0;entryDy=0;entryPerimeter=0;exitX=0;exitY=0.5;exitDx=0;exitDy=0;" edge="1" parent="1" source="93" target="96">
                    <mxGeometry width="50" height="50" relative="1" as="geometry">
                        <mxPoint x="1085" y="-1437.508770647566" as="sourcePoint"/>
                        <mxPoint x="1200.23" y="-1437.52" as="targetPoint"/>
                    </mxGeometry>
                </mxCell>
                <mxCell id="121" value="" style="endArrow=classic;html=1;entryX=1.001;entryY=0.824;entryDx=0;entryDy=0;entryPerimeter=0;" edge="1" parent="1" target="23">
                    <mxGeometry width="50" height="50" relative="1" as="geometry">
                        <mxPoint x="770" y="-1412" as="sourcePoint"/>
                        <mxPoint x="760" y="-1392" as="targetPoint"/>
                    </mxGeometry>
                </mxCell>
                <mxCell id="122" value="" style="endArrow=none;html=1;exitX=0;exitY=0.5;exitDx=0;exitDy=0;" edge="1" parent="1" source="107">
                    <mxGeometry width="50" height="50" relative="1" as="geometry">
                        <mxPoint x="713.9200000000001" y="-1435.8899999999999" as="sourcePoint"/>
                        <mxPoint x="850" y="-1412" as="targetPoint"/>
                    </mxGeometry>
                </mxCell>
                <mxCell id="123" value="" style="endArrow=none;dashed=1;html=1;dashPattern=1 3;strokeWidth=2;" edge="1" parent="1">
                    <mxGeometry width="50" height="50" relative="1" as="geometry">
                        <mxPoint x="770" y="-1412" as="sourcePoint"/>
                        <mxPoint x="850" y="-1412" as="targetPoint"/>
                    </mxGeometry>
                </mxCell>
                <mxCell id="124" value="" style="endArrow=classic;html=1;exitX=0;exitY=0.5;exitDx=0;exitDy=0;entryX=1.004;entryY=0.824;entryDx=0;entryDy=0;entryPerimeter=0;" edge="1" parent="1" source="34" target="40">
                    <mxGeometry width="50" height="50" relative="1" as="geometry">
                        <mxPoint x="395" y="-1437.5" as="sourcePoint"/>
                        <mxPoint x="510.46000000000004" y="-1437.52" as="targetPoint"/>
                    </mxGeometry>
                </mxCell>
                <mxCell id="125" value="" style="endArrow=classic;html=1;entryX=0;entryY=0.5;entryDx=0;entryDy=0;exitX=0.5;exitY=0;exitDx=0;exitDy=0;rounded=0;" edge="1" parent="1" source="40" target="7">
                    <mxGeometry width="50" height="50" relative="1" as="geometry">
                        <mxPoint x="530" y="-1610" as="sourcePoint"/>
                        <mxPoint x="580" y="-1660" as="targetPoint"/>
                        <Array as="points">
                            <mxPoint x="295" y="-1702"/>
                        </Array>
                    </mxGeometry>
                </mxCell>
                <mxCell id="127" value="" style="endArrow=classic;html=1;entryX=1;entryY=0.5;entryDx=0;entryDy=0;exitX=0.5;exitY=0;exitDx=0;exitDy=0;rounded=0;" edge="1" parent="1" source="82" target="11">
                    <mxGeometry width="50" height="50" relative="1" as="geometry">
                        <mxPoint x="1270" y="-1597.5" as="sourcePoint"/>
                        <mxPoint x="1685" y="-1710" as="targetPoint"/>
                        <Array as="points">
                            <mxPoint x="1305" y="-1667"/>
                        </Array>
                    </mxGeometry>
                </mxCell>
                <mxCell id="142" value="" style="group" vertex="1" connectable="0" parent="1">
                    <mxGeometry x="685" y="-1340" width="230" height="200" as="geometry"/>
                </mxCell>
                <mxCell id="129" value="" style="rounded=0;whiteSpace=wrap;html=1;container=0;" vertex="1" parent="142">
                    <mxGeometry width="230" height="200" as="geometry"/>
                </mxCell>
                <mxCell id="130" value="&lt;font color=&quot;#f68e3d&quot;&gt;Number&lt;/font&gt;" style="text;html=1;strokeColor=none;fillColor=none;align=center;verticalAlign=middle;whiteSpace=wrap;rounded=0;container=0;" vertex="1" parent="142">
                    <mxGeometry x="95" y="10" width="40" height="20" as="geometry"/>
                </mxCell>
                <mxCell id="131" value="" style="shape=table;html=1;whiteSpace=wrap;startSize=0;container=1;collapsible=0;childLayout=tableLayout;" vertex="1" parent="142">
                    <mxGeometry x="25" y="40" width="180" height="140" as="geometry"/>
                </mxCell>
                <mxCell id="132" value="" style="shape=partialRectangle;html=1;whiteSpace=wrap;collapsible=0;dropTarget=0;pointerEvents=0;fillColor=none;top=0;left=0;bottom=0;right=0;points=[[0,0.5],[1,0.5]];portConstraint=eastwest;" vertex="1" parent="131">
                    <mxGeometry width="180" height="35" as="geometry"/>
                </mxCell>
                <mxCell id="133" value="&lt;font color=&quot;#dcbdfb&quot;&gt;bool&lt;/font&gt;&lt;font color=&quot;#f68e3d&quot;&gt;&amp;nbsp;&lt;/font&gt;isPasitive" style="shape=partialRectangle;html=1;whiteSpace=wrap;connectable=0;fillColor=none;top=0;left=0;bottom=0;right=0;overflow=hidden;pointerEvents=1;container=0;" vertex="1" parent="132">
                    <mxGeometry width="180" height="35" as="geometry"/>
                </mxCell>
                <mxCell id="134" value="" style="shape=partialRectangle;html=1;whiteSpace=wrap;collapsible=0;dropTarget=0;pointerEvents=0;fillColor=none;top=0;left=0;bottom=0;right=0;points=[[0,0.5],[1,0.5]];portConstraint=eastwest;" vertex="1" parent="131">
                    <mxGeometry y="35" width="180" height="35" as="geometry"/>
                </mxCell>
                <mxCell id="135" value="&lt;font color=&quot;#f68e3d&quot;&gt;Digits&amp;nbsp;&lt;/font&gt;&lt;font color=&quot;#f4705d&quot;&gt;*&lt;/font&gt;head" style="shape=partialRectangle;html=1;whiteSpace=wrap;connectable=0;fillColor=none;top=0;left=0;bottom=0;right=0;overflow=hidden;pointerEvents=1;container=0;" vertex="1" parent="134">
                    <mxGeometry width="180" height="35" as="geometry"/>
                </mxCell>
                <mxCell id="136" style="shape=partialRectangle;html=1;whiteSpace=wrap;collapsible=0;dropTarget=0;pointerEvents=0;fillColor=none;top=0;left=0;bottom=0;right=0;points=[[0,0.5],[1,0.5]];portConstraint=eastwest;" vertex="1" parent="131">
                    <mxGeometry y="70" width="180" height="35" as="geometry"/>
                </mxCell>
                <mxCell id="137" value="&lt;font color=&quot;#f68e3d&quot;&gt;Digits&amp;nbsp;&lt;/font&gt;&lt;font color=&quot;#f4705d&quot;&gt;*&lt;/font&gt;tail" style="shape=partialRectangle;html=1;whiteSpace=wrap;connectable=0;fillColor=none;top=0;left=0;bottom=0;right=0;overflow=hidden;pointerEvents=1;container=0;" vertex="1" parent="136">
                    <mxGeometry width="180" height="35" as="geometry"/>
                </mxCell>
                <mxCell id="138" style="shape=partialRectangle;html=1;whiteSpace=wrap;collapsible=0;dropTarget=0;pointerEvents=0;fillColor=none;top=0;left=0;bottom=0;right=0;points=[[0,0.5],[1,0.5]];portConstraint=eastwest;" vertex="1" parent="131">
                    <mxGeometry y="105" width="180" height="35" as="geometry"/>
                </mxCell>
                <mxCell id="139" value="&lt;font color=&quot;#f4705d&quot;&gt;unsinged int&lt;/font&gt;&lt;span style=&quot;color: rgb(246 , 142 , 61)&quot;&gt;&amp;nbsp;&lt;/span&gt;decimal_point" style="shape=partialRectangle;html=1;whiteSpace=wrap;connectable=0;fillColor=none;top=0;left=0;bottom=0;right=0;overflow=hidden;pointerEvents=1;container=0;" vertex="1" parent="138">
                    <mxGeometry width="180" height="35" as="geometry"/>
                </mxCell>
                <mxCell id="155" value="" style="group" vertex="1" connectable="0" parent="1">
                    <mxGeometry x="500" y="-1110" width="230" height="160" as="geometry"/>
                </mxCell>
                <mxCell id="144" value="" style="rounded=0;whiteSpace=wrap;html=1;container=0;" vertex="1" parent="155">
                    <mxGeometry width="230" height="160" as="geometry"/>
                </mxCell>
                <mxCell id="145" value="&lt;font color=&quot;#f68e3d&quot;&gt;Digits&lt;/font&gt;" style="text;html=1;strokeColor=none;fillColor=none;align=center;verticalAlign=middle;whiteSpace=wrap;rounded=0;container=0;" vertex="1" parent="155">
                    <mxGeometry x="95" y="10" width="40" height="20" as="geometry"/>
                </mxCell>
                <mxCell id="146" value="" style="shape=table;html=1;whiteSpace=wrap;startSize=0;container=1;collapsible=0;childLayout=tableLayout;" vertex="1" parent="155">
                    <mxGeometry x="25" y="40" width="180" height="105" as="geometry"/>
                </mxCell>
                <mxCell id="147" value="" style="shape=partialRectangle;html=1;whiteSpace=wrap;collapsible=0;dropTarget=0;pointerEvents=0;fillColor=none;top=0;left=0;bottom=0;right=0;points=[[0,0.5],[1,0.5]];portConstraint=eastwest;" vertex="1" parent="146">
                    <mxGeometry width="180" height="35" as="geometry"/>
                </mxCell>
                <mxCell id="148" value="&lt;font color=&quot;#f4705d&quot;&gt;unsinged char&amp;nbsp;&lt;/font&gt;data" style="shape=partialRectangle;html=1;whiteSpace=wrap;connectable=0;fillColor=none;top=0;left=0;bottom=0;right=0;overflow=hidden;pointerEvents=1;container=0;" vertex="1" parent="147">
                    <mxGeometry width="180" height="35" as="geometry"/>
                </mxCell>
                <mxCell id="149" value="" style="shape=partialRectangle;html=1;whiteSpace=wrap;collapsible=0;dropTarget=0;pointerEvents=0;fillColor=none;top=0;left=0;bottom=0;right=0;points=[[0,0.5],[1,0.5]];portConstraint=eastwest;" vertex="1" parent="146">
                    <mxGeometry y="35" width="180" height="35" as="geometry"/>
                </mxCell>
                <mxCell id="150" value="&lt;font color=&quot;#f68e3d&quot;&gt;Digits&amp;nbsp;&lt;/font&gt;&lt;font color=&quot;#f4705d&quot;&gt;*&lt;/font&gt;next" style="shape=partialRectangle;html=1;whiteSpace=wrap;connectable=0;fillColor=none;top=0;left=0;bottom=0;right=0;overflow=hidden;pointerEvents=1;container=0;" vertex="1" parent="149">
                    <mxGeometry width="180" height="35" as="geometry"/>
                </mxCell>
                <mxCell id="151" style="shape=partialRectangle;html=1;whiteSpace=wrap;collapsible=0;dropTarget=0;pointerEvents=0;fillColor=none;top=0;left=0;bottom=0;right=0;points=[[0,0.5],[1,0.5]];portConstraint=eastwest;" vertex="1" parent="146">
                    <mxGeometry y="70" width="180" height="35" as="geometry"/>
                </mxCell>
                <mxCell id="152" value="&lt;font color=&quot;#f68e3d&quot;&gt;Digits&amp;nbsp;&lt;/font&gt;&lt;font color=&quot;#f4705d&quot;&gt;*&lt;/font&gt;prev" style="shape=partialRectangle;html=1;whiteSpace=wrap;connectable=0;fillColor=none;top=0;left=0;bottom=0;right=0;overflow=hidden;pointerEvents=1;container=0;" vertex="1" parent="151">
                    <mxGeometry width="180" height="35" as="geometry"/>
                </mxCell>
                <mxCell id="156" value="" style="group" vertex="1" connectable="0" parent="1">
                    <mxGeometry x="180" y="-1110" width="230" height="160" as="geometry"/>
                </mxCell>
                <mxCell id="157" value="" style="rounded=0;whiteSpace=wrap;html=1;container=0;" vertex="1" parent="156">
                    <mxGeometry width="230" height="160" as="geometry"/>
                </mxCell>
                <mxCell id="158" value="&lt;font color=&quot;#f68e3d&quot;&gt;Digits&lt;/font&gt;" style="text;html=1;strokeColor=none;fillColor=none;align=center;verticalAlign=middle;whiteSpace=wrap;rounded=0;container=0;" vertex="1" parent="156">
                    <mxGeometry x="95" y="10" width="40" height="20" as="geometry"/>
                </mxCell>
                <mxCell id="159" value="" style="shape=table;html=1;whiteSpace=wrap;startSize=0;container=1;collapsible=0;childLayout=tableLayout;" vertex="1" parent="156">
                    <mxGeometry x="25" y="40" width="180" height="105" as="geometry"/>
                </mxCell>
                <mxCell id="160" value="" style="shape=partialRectangle;html=1;whiteSpace=wrap;collapsible=0;dropTarget=0;pointerEvents=0;fillColor=none;top=0;left=0;bottom=0;right=0;points=[[0,0.5],[1,0.5]];portConstraint=eastwest;" vertex="1" parent="159">
                    <mxGeometry width="180" height="35" as="geometry"/>
                </mxCell>
                <mxCell id="161" value="&lt;font color=&quot;#f4705d&quot;&gt;unsinged char&amp;nbsp;&lt;/font&gt;data" style="shape=partialRectangle;html=1;whiteSpace=wrap;connectable=0;fillColor=none;top=0;left=0;bottom=0;right=0;overflow=hidden;pointerEvents=1;container=0;" vertex="1" parent="160">
                    <mxGeometry width="180" height="35" as="geometry"/>
                </mxCell>
                <mxCell id="162" value="" style="shape=partialRectangle;html=1;whiteSpace=wrap;collapsible=0;dropTarget=0;pointerEvents=0;fillColor=none;top=0;left=0;bottom=0;right=0;points=[[0,0.5],[1,0.5]];portConstraint=eastwest;" vertex="1" parent="159">
                    <mxGeometry y="35" width="180" height="35" as="geometry"/>
                </mxCell>
                <mxCell id="163" value="&lt;font color=&quot;#f68e3d&quot;&gt;Digits&amp;nbsp;&lt;/font&gt;&lt;font color=&quot;#f4705d&quot;&gt;*&lt;/font&gt;next" style="shape=partialRectangle;html=1;whiteSpace=wrap;connectable=0;fillColor=none;top=0;left=0;bottom=0;right=0;overflow=hidden;pointerEvents=1;container=0;" vertex="1" parent="162">
                    <mxGeometry width="180" height="35" as="geometry"/>
                </mxCell>
                <mxCell id="164" style="shape=partialRectangle;html=1;whiteSpace=wrap;collapsible=0;dropTarget=0;pointerEvents=0;fillColor=none;top=0;left=0;bottom=0;right=0;points=[[0,0.5],[1,0.5]];portConstraint=eastwest;" vertex="1" parent="159">
                    <mxGeometry y="70" width="180" height="35" as="geometry"/>
                </mxCell>
                <mxCell id="165" value="&lt;font color=&quot;#f68e3d&quot;&gt;Digits&amp;nbsp;&lt;/font&gt;&lt;font color=&quot;#f4705d&quot;&gt;*&lt;/font&gt;prev" style="shape=partialRectangle;html=1;whiteSpace=wrap;connectable=0;fillColor=none;top=0;left=0;bottom=0;right=0;overflow=hidden;pointerEvents=1;container=0;" vertex="1" parent="164">
                    <mxGeometry width="180" height="35" as="geometry"/>
                </mxCell>
                <mxCell id="166" value="" style="group" vertex="1" connectable="0" parent="1">
                    <mxGeometry x="870" y="-1110" width="230" height="160" as="geometry"/>
                </mxCell>
                <mxCell id="167" value="" style="rounded=0;whiteSpace=wrap;html=1;container=0;" vertex="1" parent="166">
                    <mxGeometry width="230" height="160" as="geometry"/>
                </mxCell>
                <mxCell id="168" value="&lt;font color=&quot;#f68e3d&quot;&gt;Digits&lt;/font&gt;" style="text;html=1;strokeColor=none;fillColor=none;align=center;verticalAlign=middle;whiteSpace=wrap;rounded=0;container=0;" vertex="1" parent="166">
                    <mxGeometry x="95" y="10" width="40" height="20" as="geometry"/>
                </mxCell>
                <mxCell id="169" value="" style="shape=table;html=1;whiteSpace=wrap;startSize=0;container=1;collapsible=0;childLayout=tableLayout;" vertex="1" parent="166">
                    <mxGeometry x="25" y="40" width="180" height="105" as="geometry"/>
                </mxCell>
                <mxCell id="170" value="" style="shape=partialRectangle;html=1;whiteSpace=wrap;collapsible=0;dropTarget=0;pointerEvents=0;fillColor=none;top=0;left=0;bottom=0;right=0;points=[[0,0.5],[1,0.5]];portConstraint=eastwest;" vertex="1" parent="169">
                    <mxGeometry width="180" height="35" as="geometry"/>
                </mxCell>
                <mxCell id="171" value="&lt;font color=&quot;#f4705d&quot;&gt;unsinged char&amp;nbsp;&lt;/font&gt;data" style="shape=partialRectangle;html=1;whiteSpace=wrap;connectable=0;fillColor=none;top=0;left=0;bottom=0;right=0;overflow=hidden;pointerEvents=1;container=0;" vertex="1" parent="170">
                    <mxGeometry width="180" height="35" as="geometry"/>
                </mxCell>
                <mxCell id="172" value="" style="shape=partialRectangle;html=1;whiteSpace=wrap;collapsible=0;dropTarget=0;pointerEvents=0;fillColor=none;top=0;left=0;bottom=0;right=0;points=[[0,0.5],[1,0.5]];portConstraint=eastwest;" vertex="1" parent="169">
                    <mxGeometry y="35" width="180" height="35" as="geometry"/>
                </mxCell>
                <mxCell id="173" value="&lt;font color=&quot;#f68e3d&quot;&gt;Digits&amp;nbsp;&lt;/font&gt;&lt;font color=&quot;#f4705d&quot;&gt;*&lt;/font&gt;next" style="shape=partialRectangle;html=1;whiteSpace=wrap;connectable=0;fillColor=none;top=0;left=0;bottom=0;right=0;overflow=hidden;pointerEvents=1;container=0;" vertex="1" parent="172">
                    <mxGeometry width="180" height="35" as="geometry"/>
                </mxCell>
                <mxCell id="174" style="shape=partialRectangle;html=1;whiteSpace=wrap;collapsible=0;dropTarget=0;pointerEvents=0;fillColor=none;top=0;left=0;bottom=0;right=0;points=[[0,0.5],[1,0.5]];portConstraint=eastwest;" vertex="1" parent="169">
                    <mxGeometry y="70" width="180" height="35" as="geometry"/>
                </mxCell>
                <mxCell id="175" value="&lt;font color=&quot;#f68e3d&quot;&gt;Digits&amp;nbsp;&lt;/font&gt;&lt;font color=&quot;#f4705d&quot;&gt;*&lt;/font&gt;prev" style="shape=partialRectangle;html=1;whiteSpace=wrap;connectable=0;fillColor=none;top=0;left=0;bottom=0;right=0;overflow=hidden;pointerEvents=1;container=0;" vertex="1" parent="174">
                    <mxGeometry width="180" height="35" as="geometry"/>
                </mxCell>
                <mxCell id="176" value="" style="group" vertex="1" connectable="0" parent="1">
                    <mxGeometry x="1190" y="-1110" width="230" height="160" as="geometry"/>
                </mxCell>
                <mxCell id="177" value="" style="rounded=0;whiteSpace=wrap;html=1;container=0;" vertex="1" parent="176">
                    <mxGeometry width="230" height="160" as="geometry"/>
                </mxCell>
                <mxCell id="178" value="&lt;font color=&quot;#f68e3d&quot;&gt;Digits&lt;/font&gt;" style="text;html=1;strokeColor=none;fillColor=none;align=center;verticalAlign=middle;whiteSpace=wrap;rounded=0;container=0;" vertex="1" parent="176">
                    <mxGeometry x="95" y="10" width="40" height="20" as="geometry"/>
                </mxCell>
                <mxCell id="179" value="" style="shape=table;html=1;whiteSpace=wrap;startSize=0;container=1;collapsible=0;childLayout=tableLayout;" vertex="1" parent="176">
                    <mxGeometry x="25" y="40" width="180" height="105" as="geometry"/>
                </mxCell>
                <mxCell id="180" value="" style="shape=partialRectangle;html=1;whiteSpace=wrap;collapsible=0;dropTarget=0;pointerEvents=0;fillColor=none;top=0;left=0;bottom=0;right=0;points=[[0,0.5],[1,0.5]];portConstraint=eastwest;" vertex="1" parent="179">
                    <mxGeometry width="180" height="35" as="geometry"/>
                </mxCell>
                <mxCell id="181" value="&lt;font color=&quot;#f4705d&quot;&gt;unsinged char&amp;nbsp;&lt;/font&gt;data" style="shape=partialRectangle;html=1;whiteSpace=wrap;connectable=0;fillColor=none;top=0;left=0;bottom=0;right=0;overflow=hidden;pointerEvents=1;container=0;" vertex="1" parent="180">
                    <mxGeometry width="180" height="35" as="geometry"/>
                </mxCell>
                <mxCell id="182" value="" style="shape=partialRectangle;html=1;whiteSpace=wrap;collapsible=0;dropTarget=0;pointerEvents=0;fillColor=none;top=0;left=0;bottom=0;right=0;points=[[0,0.5],[1,0.5]];portConstraint=eastwest;" vertex="1" parent="179">
                    <mxGeometry y="35" width="180" height="35" as="geometry"/>
                </mxCell>
                <mxCell id="183" value="&lt;font color=&quot;#f68e3d&quot;&gt;Digits&amp;nbsp;&lt;/font&gt;&lt;font color=&quot;#f4705d&quot;&gt;*&lt;/font&gt;next" style="shape=partialRectangle;html=1;whiteSpace=wrap;connectable=0;fillColor=none;top=0;left=0;bottom=0;right=0;overflow=hidden;pointerEvents=1;container=0;" vertex="1" parent="182">
                    <mxGeometry width="180" height="35" as="geometry"/>
                </mxCell>
                <mxCell id="184" style="shape=partialRectangle;html=1;whiteSpace=wrap;collapsible=0;dropTarget=0;pointerEvents=0;fillColor=none;top=0;left=0;bottom=0;right=0;points=[[0,0.5],[1,0.5]];portConstraint=eastwest;" vertex="1" parent="179">
                    <mxGeometry y="70" width="180" height="35" as="geometry"/>
                </mxCell>
                <mxCell id="185" value="&lt;font color=&quot;#f68e3d&quot;&gt;Digits&amp;nbsp;&lt;/font&gt;&lt;font color=&quot;#f4705d&quot;&gt;*&lt;/font&gt;prev" style="shape=partialRectangle;html=1;whiteSpace=wrap;connectable=0;fillColor=none;top=0;left=0;bottom=0;right=0;overflow=hidden;pointerEvents=1;container=0;" vertex="1" parent="184">
                    <mxGeometry width="180" height="35" as="geometry"/>
                </mxCell>
                <mxCell id="186" value="" style="endArrow=classic;html=1;exitX=0;exitY=0.5;exitDx=0;exitDy=0;entryX=1.004;entryY=0.824;entryDx=0;entryDy=0;entryPerimeter=0;" edge="1" parent="1">
                    <mxGeometry width="50" height="50" relative="1" as="geometry">
                        <mxPoint x="524.9999999999998" y="-981.98" as="sourcePoint"/>
                        <mxPoint x="410.9200000000001" y="-981.72" as="targetPoint"/>
                    </mxGeometry>
                </mxCell>
                <mxCell id="187" value="" style="endArrow=classic;html=1;exitX=1;exitY=0.5;exitDx=0;exitDy=0;entryX=0.002;entryY=0.677;entryDx=0;entryDy=0;entryPerimeter=0;" edge="1" parent="1">
                    <mxGeometry width="50" height="50" relative="1" as="geometry">
                        <mxPoint x="385.0000000000002" y="-1016.98" as="sourcePoint"/>
                        <mxPoint x="500.46000000000004" y="-1017.0000000000002" as="targetPoint"/>
                    </mxGeometry>
                </mxCell>
                <mxCell id="188" value="" style="endArrow=none;dashed=1;html=1;dashPattern=1 3;strokeWidth=2;" edge="1" parent="1">
                    <mxGeometry width="50" height="50" relative="1" as="geometry">
                        <mxPoint x="750.08" y="-1016" as="sourcePoint"/>
                        <mxPoint x="830.08" y="-1016" as="targetPoint"/>
                    </mxGeometry>
                </mxCell>
                <mxCell id="189" value="" style="endArrow=none;dashed=1;html=1;dashPattern=1 3;strokeWidth=2;" edge="1" parent="1">
                    <mxGeometry width="50" height="50" relative="1" as="geometry">
                        <mxPoint x="770.08" y="-982" as="sourcePoint"/>
                        <mxPoint x="850.08" y="-982" as="targetPoint"/>
                    </mxGeometry>
                </mxCell>
                <mxCell id="190" value="" style="endArrow=none;html=1;exitX=0.994;exitY=0.546;exitDx=0;exitDy=0;exitPerimeter=0;" edge="1" parent="1">
                    <mxGeometry width="50" height="50" relative="1" as="geometry">
                        <mxPoint x="703.9999999999999" y="-1015.8899999999999" as="sourcePoint"/>
                        <mxPoint x="750.08" y="-1016" as="targetPoint"/>
                    </mxGeometry>
                </mxCell>
                <mxCell id="191" value="" style="endArrow=classic;html=1;entryX=1.001;entryY=0.824;entryDx=0;entryDy=0;entryPerimeter=0;" edge="1" parent="1">
                    <mxGeometry width="50" height="50" relative="1" as="geometry">
                        <mxPoint x="770.08" y="-982" as="sourcePoint"/>
                        <mxPoint x="730.3100000000001" y="-982.24" as="targetPoint"/>
                    </mxGeometry>
                </mxCell>
                <mxCell id="192" value="" style="endArrow=classic;html=1;entryX=0.002;entryY=0.677;entryDx=0;entryDy=0;entryPerimeter=0;" edge="1" parent="1">
                    <mxGeometry width="50" height="50" relative="1" as="geometry">
                        <mxPoint x="830.08" y="-1016" as="sourcePoint"/>
                        <mxPoint x="870.08" y="-1016" as="targetPoint"/>
                    </mxGeometry>
                </mxCell>
                <mxCell id="193" value="" style="endArrow=none;html=1;exitX=0;exitY=0.5;exitDx=0;exitDy=0;" edge="1" parent="1">
                    <mxGeometry width="50" height="50" relative="1" as="geometry">
                        <mxPoint x="895.08" y="-982.5" as="sourcePoint"/>
                        <mxPoint x="850.08" y="-982" as="targetPoint"/>
                    </mxGeometry>
                </mxCell>
                <mxCell id="194" value="" style="endArrow=classic;html=1;entryX=1;entryY=0.822;entryDx=0;entryDy=0;entryPerimeter=0;exitX=0;exitY=0.5;exitDx=0;exitDy=0;" edge="1" parent="1">
                    <mxGeometry width="50" height="50" relative="1" as="geometry">
                        <mxPoint x="1215" y="-982.98" as="sourcePoint"/>
                        <mxPoint x="1100" y="-983.2" as="targetPoint"/>
                    </mxGeometry>
                </mxCell>
                <mxCell id="195" value="" style="endArrow=classic;html=1;entryX=0.001;entryY=0.677;entryDx=0;entryDy=0;entryPerimeter=0;" edge="1" parent="1">
                    <mxGeometry width="50" height="50" relative="1" as="geometry">
                        <mxPoint x="1075" y="-1017.9887706475661" as="sourcePoint"/>
                        <mxPoint x="1190.23" y="-1018" as="targetPoint"/>
                    </mxGeometry>
                </mxCell>
                <mxCell id="196" value="" style="endArrow=classic;html=1;exitX=0.5;exitY=0;exitDx=0;exitDy=0;entryX=0;entryY=0.5;entryDx=0;entryDy=0;rounded=0;" edge="1" parent="1" source="157" target="134">
                    <mxGeometry width="50" height="50" relative="1" as="geometry">
                        <mxPoint x="620" y="-1270" as="sourcePoint"/>
                        <mxPoint x="670" y="-1320" as="targetPoint"/>
                        <Array as="points">
                            <mxPoint x="295" y="-1250"/>
                        </Array>
                    </mxGeometry>
                </mxCell>
                <mxCell id="197" value="" style="endArrow=classic;html=1;exitX=0.5;exitY=0;exitDx=0;exitDy=0;entryX=1;entryY=0.5;entryDx=0;entryDy=0;rounded=0;" edge="1" parent="1" source="177" target="136">
                    <mxGeometry width="50" height="50" relative="1" as="geometry">
                        <mxPoint x="305.0000000000002" y="-1100" as="sourcePoint"/>
                        <mxPoint x="719.9999999999998" y="-1237.5" as="targetPoint"/>
                        <Array as="points">
                            <mxPoint x="1305" y="-1212"/>
                        </Array>
                    </mxGeometry>
                </mxCell>
                <mxCell id="198" value="" style="endArrow=classic;html=1;strokeColor=#f0f0f0;exitX=0.5;exitY=0;exitDx=0;exitDy=0;entryX=1;entryY=0.5;entryDx=0;entryDy=0;rounded=0;" edge="1" parent="1" source="129" target="28">
                    <mxGeometry width="50" height="50" relative="1" as="geometry">
                        <mxPoint x="770" y="-1400" as="sourcePoint"/>
                        <mxPoint x="820" y="-1450" as="targetPoint"/>
                        <Array as="points">
                            <mxPoint x="800" y="-1517"/>
                        </Array>
                    </mxGeometry>
                </mxCell>
            </root>
        </mxGraphModel>
    </diagram>
</mxfile>